<svg width="760" height="760" viewBox="0 0 760 760" xmlns="http://www.w3.org/2000/svg" font-family="Segoe UI, Helvetica, Arial, sans-serif">
<rect x="0" y="0" width="760" height="760" fill="#ffffff"/>
<defs>
<marker id="arrow" viewBox="0 0 10 10" refX="8.5" refY="5" markerWidth="6.5" markerHeight="6.5" orient="auto-start-reverse"><path d="M2 1L8 5L2 9" fill="none" stroke="#444441" stroke-width="1.6" stroke-linecap="round" stroke-linejoin="round"/></marker>
<marker id="arrowlite" viewBox="0 0 10 10" refX="8.5" refY="5" markerWidth="6" markerHeight="6" orient="auto-start-reverse"><path d="M2 1L8 5L2 9" fill="none" stroke="#6f6e6a" stroke-width="1.5" stroke-linecap="round" stroke-linejoin="round"/></marker>
</defs>

<!-- ===== Top clients ===== -->
<rect x="70" y="24" width="170" height="48" rx="8" fill="#ffffff" stroke="#444441" stroke-width="1.2"/>
<text x="155" y="44" text-anchor="middle" font-size="13" font-weight="600" fill="#2C2C2A">Angular frontend</text>
<text x="155" y="61" text-anchor="middle" font-size="11" fill="#5F5E5A">Users, products, orders</text>

<rect x="520" y="24" width="170" height="48" rx="8" fill="#ffffff" stroke="#444441" stroke-width="1.2"/>
<text x="605" y="44" text-anchor="middle" font-size="13" font-weight="600" fill="#2C2C2A">Entra ID B2C</text>
<text x="605" y="61" text-anchor="middle" font-size="11" fill="#5F5E5A">JWT auth (in works!)</text>

<!-- APIM -->
<rect x="290" y="98" width="200" height="48" rx="8" fill="#ffffff" stroke="#444441" stroke-width="1.2"/>
<text x="390" y="118" text-anchor="middle" font-size="13" font-weight="600" fill="#2C2C2A">Azure API Management</text>
<text x="390" y="135" text-anchor="middle" font-size="11" fill="#5F5E5A">Public entry &#183; throttling</text>

<line x1="155" y1="72" x2="320" y2="96" stroke="#444441" stroke-width="1.5" marker-end="url(#arrow)"/>
<line x1="605" y1="72" x2="460" y2="96" stroke="#444441" stroke-width="1.5" marker-end="url(#arrow)"/>
<line x1="390" y1="146" x2="390" y2="178" stroke="#444441" stroke-width="1.5" marker-end="url(#arrow)"/>

<!-- ===== AKS cluster ===== -->
<rect x="222" y="180" width="528" height="468" rx="16" fill="#ffffff" stroke="#444441" stroke-width="1.3" stroke-dasharray="6 4"/>
<text x="486" y="201" text-anchor="middle" font-size="14" font-weight="600" fill="#2C2C2A">Azure Kubernetes Service (AKS)</text>

<!-- namespaces -->
<text x="238" y="224" font-size="10" font-weight="600" fill="#5F5E5A">NAMESPACES</text>
<rect x="238" y="230" width="84" height="22" rx="5" fill="#ffffff" stroke="#888780" stroke-width="1"/>
<text x="280" y="245" text-anchor="middle" font-size="9.5" fill="#5F5E5A">ecommerce-dev</text>
<rect x="328" y="230" width="78" height="22" rx="5" fill="#ffffff" stroke="#888780" stroke-width="1"/>
<text x="367" y="245" text-anchor="middle" font-size="9.5" fill="#5F5E5A">ecommerce-qa</text>
<rect x="412" y="230" width="82" height="22" rx="5" fill="#ffffff" stroke="#888780" stroke-width="1"/>
<text x="453" y="245" text-anchor="middle" font-size="9.5" fill="#5F5E5A">ecommerce-uat</text>
<rect x="500" y="230" width="100" height="22" rx="5" fill="#ffffff" stroke="#888780" stroke-width="1"/>
<text x="550" y="245" text-anchor="middle" font-size="9.5" fill="#5F5E5A">ecommerce-staging</text>
<rect x="606" y="230" width="90" height="22" rx="5" fill="#2C2C2A" stroke="#2C2C2A" stroke-width="1"/>
<text x="651" y="245" text-anchor="middle" font-size="9.5" font-weight="600" fill="#ffffff">ecommerce-prod</text>

<!-- Gateway service (LoadBalancer) -->
<rect x="300" y="266" width="248" height="56" rx="8" fill="#ffffff" stroke="#444441" stroke-width="1.4"/>
<text x="424" y="285" text-anchor="middle" font-size="13" font-weight="600" fill="#2C2C2A">API Gateway (Ocelot) &#8212; Pod</text>
<text x="424" y="301" text-anchor="middle" font-size="10.5" fill="#5F5E5A">Exposed via Service (type: LoadBalancer)</text>
<text x="424" y="315" text-anchor="middle" font-size="10.5" fill="#5F5E5A">External IP &#8594; entry to all pods</text>

<line x1="390" y1="178" x2="390" y2="178" stroke="#444441" stroke-width="0"/>
<!-- APIM arrow already lands at cluster top; add arrow into gateway -->
<line x1="424" y1="252" x2="424" y2="264" stroke="#444441" stroke-width="1.5" marker-end="url(#arrow)"/>

<!-- gateway -> pods -->
<line x1="340" y1="322" x2="305" y2="356" stroke="#444441" stroke-width="1.5" marker-end="url(#arrow)"/>
<line x1="424" y1="322" x2="424" y2="356" stroke="#444441" stroke-width="1.5" marker-end="url(#arrow)"/>
<line x1="508" y1="322" x2="543" y2="356" stroke="#444441" stroke-width="1.5" marker-end="url(#arrow)"/>

<!-- Service pods: Products emphasized -->
<rect x="240" y="358" width="130" height="56" rx="8" fill="#ffffff" stroke="#444441" stroke-width="1.2"/>
<text x="305" y="378" text-anchor="middle" font-size="13" font-weight="600" fill="#2C2C2A">Users &#8212; Pod</text>
<text x="305" y="395" text-anchor="middle" font-size="10.5" fill="#5F5E5A">Dapper &#183; JWT</text>

<rect x="386" y="352" width="158" height="68" rx="9" fill="#2C2C2A" stroke="#2C2C2A" stroke-width="2"/>
<text x="465" y="378" text-anchor="middle" font-size="16" font-weight="700" fill="#ffffff">Products &#8212; Pod</text>
<text x="465" y="398" text-anchor="middle" font-size="10.5" fill="#d8d7d1">EF Core &#183; this service</text>

<rect x="560" y="358" width="130" height="56" rx="8" fill="#ffffff" stroke="#444441" stroke-width="1.2"/>
<text x="625" y="378" text-anchor="middle" font-size="13" font-weight="600" fill="#2C2C2A">Orders &#8212; Pod</text>
<text x="625" y="395" text-anchor="middle" font-size="10.5" fill="#5F5E5A">Repository</text>

<!-- pods -> DBs -->
<line x1="305" y1="414" x2="305" y2="444" stroke="#444441" stroke-width="1.5" marker-end="url(#arrow)"/>
<line x1="465" y1="420" x2="465" y2="444" stroke="#444441" stroke-width="1.5" marker-end="url(#arrow)"/>
<line x1="625" y1="414" x2="625" y2="444" stroke="#444441" stroke-width="1.5" marker-end="url(#arrow)"/>

<!-- Databases -->
<rect x="240" y="446" width="130" height="46" rx="8" fill="#ffffff" stroke="#444441" stroke-width="1.2"/>
<text x="305" y="464" text-anchor="middle" font-size="12" font-weight="600" fill="#2C2C2A">PostgreSQL</text>
<text x="305" y="481" text-anchor="middle" font-size="10.5" fill="#5F5E5A">Users data</text>

<rect x="400" y="446" width="130" height="46" rx="8" fill="#ffffff" stroke="#444441" stroke-width="1.2"/>
<text x="465" y="464" text-anchor="middle" font-size="12" font-weight="600" fill="#2C2C2A">MySQL</text>
<text x="465" y="481" text-anchor="middle" font-size="10.5" fill="#5F5E5A">Product catalog</text>

<rect x="560" y="446" width="130" height="46" rx="8" fill="#ffffff" stroke="#444441" stroke-width="1.2"/>
<text x="625" y="464" text-anchor="middle" font-size="12" font-weight="600" fill="#2C2C2A">MongoDB</text>
<text x="625" y="481" text-anchor="middle" font-size="10.5" fill="#5F5E5A">Orders</text>

<!-- RabbitMQ + Redis note boxes (no arrows) -->
<rect x="238" y="512" width="246" height="120" rx="8" fill="#ffffff" stroke="#888780" stroke-width="1" stroke-dasharray="3 2"/>
<text x="252" y="530" font-size="12" font-weight="700" fill="#2C2C2A">RabbitMQ &#8212; async messaging</text>
<text x="252" y="548" font-size="10.5" fill="#5F5E5A">When a product name or price changes,</text>
<text x="252" y="562" font-size="10.5" fill="#5F5E5A">Products publishes an event. Orders</text>
<text x="252" y="576" font-size="10.5" fill="#5F5E5A">consumes it asynchronously and updates</text>
<text x="252" y="590" font-size="10.5" fill="#5F5E5A">its stored product name / price &#8212; so the</text>
<text x="252" y="604" font-size="10.5" fill="#5F5E5A">two services stay decoupled, no direct</text>
<text x="252" y="618" font-size="10.5" fill="#5F5E5A">call needed.</text>

<rect x="496" y="512" width="240" height="120" rx="8" fill="#ffffff" stroke="#888780" stroke-width="1" stroke-dasharray="3 2"/>
<text x="510" y="530" font-size="12" font-weight="700" fill="#2C2C2A">Redis &#8212; distributed cache</text>
<text x="510" y="548" font-size="10.5" fill="#5F5E5A">Frequently read product data is cached</text>
<text x="510" y="562" font-size="10.5" fill="#5F5E5A">in Redis. Reads are served from cache</text>
<text x="510" y="576" font-size="10.5" fill="#5F5E5A">instead of hitting the database, so the</text>
<text x="510" y="590" font-size="10.5" fill="#5F5E5A">app loads faster. The cache is kept in</text>
<text x="510" y="604" font-size="10.5" fill="#5F5E5A">sync by the same product events above</text>
<text x="510" y="618" font-size="10.5" fill="#5F5E5A">(invalidate / update on change).</text>

<!-- ===== Left: Azure DevOps + ACR ===== -->
<rect x="20" y="266" width="178" height="240" rx="11" fill="#ffffff" stroke="#444441" stroke-width="1.2" stroke-dasharray="5 3"/>
<text x="109" y="287" text-anchor="middle" font-size="12" font-weight="700" fill="#2C2C2A">Azure DevOps</text>

<rect x="36" y="298" width="146" height="40" rx="6" fill="#ffffff" stroke="#888780" stroke-width="1"/>
<text x="109" y="315" text-anchor="middle" font-size="11" font-weight="600" fill="#2C2C2A">Pipelines</text>
<text x="109" y="330" text-anchor="middle" font-size="10" fill="#5F5E5A">build &#183; test &#183; push</text>

<rect x="36" y="346" width="146" height="40" rx="6" fill="#ffffff" stroke="#888780" stroke-width="1"/>
<text x="109" y="363" text-anchor="middle" font-size="11" font-weight="600" fill="#2C2C2A">Service connections</text>
<text x="109" y="378" text-anchor="middle" font-size="10" fill="#5F5E5A">ACR + AKS (SPN)</text>

<rect x="36" y="394" width="146" height="100" rx="6" fill="#ffffff" stroke="#888780" stroke-width="1"/>
<text x="109" y="411" text-anchor="middle" font-size="11" font-weight="700" fill="#2C2C2A">ACR</text>
<text x="109" y="425" text-anchor="middle" font-size="9.5" fill="#5F5E5A">akshatecommerceregistry</text>
<line x1="48" y1="431" x2="170" y2="431" stroke="#d0cfc8" stroke-width="1"/>
<text x="109" y="445" text-anchor="middle" font-size="9" fill="#6f6e6a">apigateway &#183; users-microservice</text>
<text x="109" y="457" text-anchor="middle" font-size="9" fill="#6f6e6a">products-microservice</text>
<text x="109" y="469" text-anchor="middle" font-size="9" fill="#6f6e6a">orders-microservice</text>
<text x="109" y="481" text-anchor="middle" font-size="9" fill="#6f6e6a">postgres &#183; mysql &#183; mongodb</text>

<line x1="109" y1="338" x2="109" y2="344" stroke="#6f6e6a" stroke-width="1.5" marker-end="url(#arrowlite)"/>
<line x1="109" y1="386" x2="109" y2="392" stroke="#6f6e6a" stroke-width="1.5" marker-end="url(#arrowlite)"/>

<!-- ACR -> AKS pull (into Products pod left edge) -->
<path d="M182 430 L202 430 L202 292 L222 292" fill="none" stroke="#444441" stroke-width="1.5" stroke-dasharray="4 3" marker-end="url(#arrow)"/>
<text x="202" y="284" text-anchor="middle" font-size="9.5" fill="#5F5E5A">AKS pulls images</text>

<!-- service connection -> AKS deploy (into cluster top-left) -->
<path d="M182 366 L196 366 L196 312 L222 312" fill="none" stroke="#444441" stroke-width="1.5" stroke-dasharray="4 3" marker-end="url(#arrow)"/>
<text x="150" y="262" text-anchor="middle" font-size="9.5" fill="#5F5E5A">kubectl / Helm deploy</text>

<!-- legend -->
<text x="380" y="668" text-anchor="middle" font-size="10.5" fill="#888780" font-style="italic">Solid arrows = request / data flow   &#183;   Dashed arrows = CI/CD build &amp; deploy</text>
</svg>
